<svg width="105" height="129" viewBox="0 0 105 129" fill="none" xmlns="http://www.w3.org/2000/svg" style="stroke: #277364;">
<mask id="path-1-inside-1_1_15" fill="white">
<path d="M22 25C18.7928 25 15.6245 25.7012 12.7168 27.0545C9.80916 28.4078 7.23255 30.3805 5.16748 32.8343C3.10241 35.2882 1.59881 38.1639 0.762026 41.2599C-0.0747623 44.356 -0.224508 47.5976 0.323278 50.7576C0.871063 53.9177 2.10313 56.9197 3.93318 59.5535C5.76323 62.1873 8.14699 64.3891 10.9175 66.0047C13.688 67.6203 16.7782 68.6106 19.9717 68.9063C23.1652 69.202 26.3848 68.7959 29.4048 67.7164L27.1834 61.5015C25.0693 62.2571 22.8157 62.5414 20.5802 62.3344C18.3448 62.1274 16.1816 61.4342 14.2422 60.3033C12.3029 59.1724 10.6343 57.6311 9.35323 55.7874C8.07219 53.9438 7.20974 51.8424 6.82629 49.6303C6.44284 47.4183 6.54767 45.1492 7.13342 42.9819C7.71917 40.8147 8.77168 38.8017 10.2172 37.084C11.6628 35.3663 13.4664 33.9855 15.5018 33.0382C17.5371 32.0908 19.755 31.6 22 31.6L22 25Z"/>
</mask>
<path d="M22 25C18.7928 25 15.6245 25.7012 12.7168 27.0545C9.80916 28.4078 7.23255 30.3805 5.16748 32.8343C3.10241 35.2882 1.59881 38.1639 0.762026 41.2599C-0.0747623 44.356 -0.224508 47.5976 0.323278 50.7576C0.871063 53.9177 2.10313 56.9197 3.93318 59.5535C5.76323 62.1873 8.14699 64.3891 10.9175 66.0047C13.688 67.6203 16.7782 68.6106 19.9717 68.9063C23.1652 69.202 26.3848 68.7959 29.4048 67.7164L27.1834 61.5015C25.0693 62.2571 22.8157 62.5414 20.5802 62.3344C18.3448 62.1274 16.1816 61.4342 14.2422 60.3033C12.3029 59.1724 10.6343 57.6311 9.35323 55.7874C8.07219 53.9438 7.20974 51.8424 6.82629 49.6303C6.44284 47.4183 6.54767 45.1492 7.13342 42.9819C7.71917 40.8147 8.77168 38.8017 10.2172 37.084C11.6628 35.3663 13.4664 33.9855 15.5018 33.0382C17.5371 32.0908 19.755 31.6 22 31.6L22 25Z"  stroke-width="12" mask="url(#path-1-inside-1_1_15)"/>
<mask id="path-2-inside-2_1_15" fill="white">
<path d="M54 22C54 18.6053 53.2144 15.2567 51.7047 12.2161C50.195 9.17562 48.0022 6.52571 45.2978 4.4738C42.5935 2.42189 39.4509 1.02364 36.1162 0.388499C32.7814 -0.246647 29.345 -0.101463 26.0757 0.812687C22.8064 1.72684 19.793 3.38515 17.2713 5.65785C14.7497 7.93055 12.7881 10.756 11.5403 13.913C10.2924 17.07 9.79207 20.473 10.0784 23.8556C10.3647 27.2382 11.4299 30.5086 13.1907 33.411L18.8335 29.9877C17.601 27.956 16.8553 25.6667 16.6549 23.2989C16.4544 20.9311 16.8047 18.549 17.6782 16.3391C18.5517 14.1292 19.9248 12.1514 21.6899 10.5605C23.4551 8.96961 25.5645 7.80879 27.853 7.16888C30.1415 6.52898 32.547 6.42735 34.8813 6.87195C37.2157 7.31655 39.4154 8.29532 41.3085 9.73166C43.2015 11.168 44.7365 13.0229 45.7933 15.1513C46.8501 17.2797 47.4 19.6237 47.4 22L54 22Z"/>
</mask>
<path d="M54 22C54 18.6053 53.2144 15.2567 51.7047 12.2161C50.195 9.17562 48.0022 6.52571 45.2978 4.4738C42.5935 2.42189 39.4509 1.02364 36.1162 0.388499C32.7814 -0.246647 29.345 -0.101463 26.0757 0.812687C22.8064 1.72684 19.793 3.38515 17.2713 5.65785C14.7497 7.93055 12.7881 10.756 11.5403 13.913C10.2924 17.07 9.79207 20.473 10.0784 23.8556C10.3647 27.2382 11.4299 30.5086 13.1907 33.411L18.8335 29.9877C17.601 27.956 16.8553 25.6667 16.6549 23.2989C16.4544 20.9311 16.8047 18.549 17.6782 16.3391C18.5517 14.1292 19.9248 12.1514 21.6899 10.5605C23.4551 8.96961 25.5645 7.80879 27.853 7.16888C30.1415 6.52898 32.547 6.42735 34.8813 6.87195C37.2157 7.31655 39.4154 8.29532 41.3085 9.73166C43.2015 11.168 44.7365 13.0229 45.7933 15.1513C46.8501 17.2797 47.4 19.6237 47.4 22L54 22Z"  stroke-width="12" mask="url(#path-2-inside-2_1_15)"/>
<mask id="path-3-inside-3_1_15" fill="white">
<path d="M87.783 37.0825C88.2064 34.09 88.0088 31.0423 87.2023 28.1296C86.3959 25.2169 84.9979 22.5016 83.0956 20.153C81.1933 17.8044 78.8276 15.873 76.1458 14.4792C73.4641 13.0854 70.524 12.2591 67.5088 12.0518C64.4936 11.8445 61.468 12.2607 58.6208 13.2745C55.7735 14.2882 53.1657 15.8778 50.96 17.9439C48.7542 20.0101 46.9979 22.5086 45.8004 25.2836C44.603 28.0585 43.9901 31.0505 44.0001 34.0728L50.6001 34.0509C50.5931 31.9353 51.0221 29.841 51.8603 27.8985C52.6985 25.956 53.928 24.2071 55.472 22.7607C57.016 21.3144 58.8415 20.2018 60.8345 19.4921C62.8276 18.7825 64.9455 18.4912 67.0561 18.6363C69.1668 18.7813 71.2249 19.3598 73.1021 20.3354C74.9793 21.3111 76.6353 22.6631 77.9669 24.3071C79.2985 25.9511 80.2771 27.8518 80.8416 29.8907C81.4061 31.9296 81.5445 34.063 81.2481 36.1577L87.783 37.0825Z"/>
</mask>
<path d="M87.783 37.0825C88.2064 34.09 88.0088 31.0423 87.2023 28.1296C86.3959 25.2169 84.9979 22.5016 83.0956 20.153C81.1933 17.8044 78.8276 15.873 76.1458 14.4792C73.4641 13.0854 70.524 12.2591 67.5088 12.0518C64.4936 11.8445 61.468 12.2607 58.6208 13.2745C55.7735 14.2882 53.1657 15.8778 50.96 17.9439C48.7542 20.0101 46.9979 22.5086 45.8004 25.2836C44.603 28.0585 43.9901 31.0505 44.0001 34.0728L50.6001 34.0509C50.5931 31.9353 51.0221 29.841 51.8603 27.8985C52.6985 25.956 53.928 24.2071 55.472 22.7607C57.016 21.3144 58.8415 20.2018 60.8345 19.4921C62.8276 18.7825 64.9455 18.4912 67.0561 18.6363C69.1668 18.7813 71.2249 19.3598 73.1021 20.3354C74.9793 21.3111 76.6353 22.6631 77.9669 24.3071C79.2985 25.9511 80.2771 27.8518 80.8416 29.8907C81.4061 31.9296 81.5445 34.063 81.2481 36.1577L87.783 37.0825Z"  stroke-width="12" mask="url(#path-3-inside-3_1_15)"/>
<mask id="path-4-inside-4_1_15" fill="white">
<path d="M67.4437 71.5563C70.2474 74.3601 73.7567 76.354 77.6005 77.3271C81.4443 78.3003 85.4797 78.2165 89.2798 77.0847C93.0799 75.9529 96.5035 73.8151 99.1884 70.8975C101.873 67.9798 103.72 64.3907 104.533 60.5099C105.346 56.629 105.094 52.6006 103.806 48.8507C102.517 45.1009 100.239 41.7689 97.2129 39.2073C94.1863 36.6457 90.5238 34.9497 86.6125 34.2986C82.7013 33.6475 78.6867 34.0656 74.9936 35.5086L77.3955 41.656C79.9807 40.6459 82.7909 40.3533 85.5288 40.809C88.2666 41.2648 90.8304 42.452 92.949 44.2451C95.0676 46.0383 96.6622 48.3706 97.5642 50.9955C98.4661 53.6204 98.6419 56.4403 98.073 59.1569C97.504 61.8735 96.2114 64.3859 94.3319 66.4282C92.4524 68.4706 90.0559 69.967 87.3958 70.7593C84.7358 71.5516 81.911 71.6102 79.2204 70.929C76.5297 70.2478 74.0732 68.8521 72.1106 66.8894L67.4437 71.5563Z"/>
</mask>
<path d="M67.4437 71.5563C70.2474 74.3601 73.7567 76.354 77.6005 77.3271C81.4443 78.3003 85.4797 78.2165 89.2798 77.0847C93.0799 75.9529 96.5035 73.8151 99.1884 70.8975C101.873 67.9798 103.72 64.3907 104.533 60.5099C105.346 56.629 105.094 52.6006 103.806 48.8507C102.517 45.1009 100.239 41.7689 97.2129 39.2073C94.1863 36.6457 90.5238 34.9497 86.6125 34.2986C82.7013 33.6475 78.6867 34.0656 74.9936 35.5086L77.3955 41.656C79.9807 40.6459 82.7909 40.3533 85.5288 40.809C88.2666 41.2648 90.8304 42.452 92.949 44.2451C95.0676 46.0383 96.6622 48.3706 97.5642 50.9955C98.4661 53.6204 98.6419 56.4403 98.073 59.1569C97.504 61.8735 96.2114 64.3859 94.3319 66.4282C92.4524 68.4706 90.0559 69.967 87.3958 70.7593C84.7358 71.5516 81.911 71.6102 79.2204 70.929C76.5297 70.2478 74.0732 68.8521 72.1106 66.8894L67.4437 71.5563Z"  stroke-width="12" mask="url(#path-4-inside-4_1_15)"/>
<path d="M40.8702 67.2547L40.9397 67.1633L41.0005 67.0658L44.3601 61.684C47.0627 57.3546 43.95 51.742 38.8462 51.742L26.7869 51.742C26.0506 51.742 25.4231 51.2075 25.306 50.4806L24.1193 43.114C23.9559 42.0997 24.8375 41.225 25.8505 41.3965L52.8461 45.965L52.8849 45.9715L52.9239 45.9769L81.6261 49.9087C82.8418 50.0752 83.3542 51.5514 82.503 52.4353L76.7354 58.4247C76.33 58.8457 75.717 58.9929 75.1647 58.8019L65.8807 55.5913C62.6678 54.4802 59.1415 56.0326 57.7911 59.1524L41.5433 96.691C41.0571 97.8142 40.898 99.0517 41.084 100.261L44.1526 120.207C44.2983 121.154 43.5311 121.993 42.575 121.932L20.9348 120.558C19.9868 120.498 19.3327 119.583 19.5827 118.666L25.7676 95.9878L31.5288 79.6645C31.5805 79.5177 31.6549 79.38 31.749 79.2561L40.8702 67.2547Z"  stroke-width="5"/>
</svg>
