<svg width="931" height="1143" viewBox="0 0 931 1143" fill="none" xmlns="http://www.w3.org/2000/svg" style="stroke: #277364;">
<mask id="path-1-inside-1_1_15" fill="white">
<path d="M195 237C166.573 237 138.49 243.231 112.717 255.257C86.9448 267.283 64.1067 284.813 45.8026 306.619C27.4986 328.424 14.1713 353.979 6.75432 381.492C-0.662666 409.004 -1.98996 437.81 2.86542 465.892C7.72079 493.973 18.6414 520.65 34.8623 544.055C51.0832 567.46 72.212 587.026 96.7687 601.383C121.325 615.739 148.716 624.54 177.022 627.167C205.328 629.795 233.865 626.186 260.634 616.593L240.943 561.365C222.206 568.08 202.23 570.606 182.416 568.767C162.601 566.928 143.428 560.768 126.238 550.718C109.048 540.668 94.2582 526.972 82.9036 510.588C71.549 494.205 63.9046 475.531 60.5058 455.874C57.107 436.217 58.0361 416.053 63.228 396.794C68.4199 377.535 77.749 359.647 90.5618 344.383C103.375 329.119 119.361 316.848 137.402 308.43C155.443 300.012 175.101 295.65 195 295.65L195 237Z"/>
</mask>
<path d="M195 237C166.573 237 138.49 243.231 112.717 255.257C86.9448 267.283 64.1067 284.813 45.8026 306.619C27.4986 328.424 14.1713 353.979 6.75432 381.492C-0.662666 409.004 -1.98996 437.81 2.86542 465.892C7.72079 493.973 18.6414 520.65 34.8623 544.055C51.0832 567.46 72.212 587.026 96.7687 601.383C121.325 615.739 148.716 624.54 177.022 627.167C205.328 629.795 233.865 626.186 260.634 616.593L240.943 561.365C222.206 568.08 202.23 570.606 182.416 568.767C162.601 566.928 143.428 560.768 126.238 550.718C109.048 540.668 94.2582 526.972 82.9036 510.588C71.549 494.205 63.9046 475.531 60.5058 455.874C57.107 436.217 58.0361 416.053 63.228 396.794C68.4199 377.535 77.749 359.647 90.5618 344.383C103.375 329.119 119.361 316.848 137.402 308.43C155.443 300.012 175.101 295.65 195 295.65L195 237Z" stroke-width="60" mask="url(#path-1-inside-1_1_15)"/>
<mask id="path-2-inside-2_1_15" fill="white">
<path d="M483 195C483 164.911 476.037 135.23 462.656 108.279C449.274 81.3294 429.838 57.8415 405.867 39.6541C381.897 21.4667 354.042 9.07322 324.484 3.44352C294.926 -2.18619 264.467 -0.899332 235.489 7.20336C206.511 15.3061 179.801 30.0048 157.45 50.1491C135.099 70.2935 117.713 95.337 106.652 123.32C95.5919 151.302 91.157 181.465 93.6949 211.447C96.2327 241.429 105.675 270.417 121.281 296.143L171.297 265.8C160.372 247.792 153.763 227.501 151.986 206.513C150.21 185.526 153.314 164.412 161.057 144.824C168.799 125.236 180.969 107.705 196.615 93.6044C212.261 79.5033 230.958 69.2142 251.242 63.5424C271.527 57.8705 292.849 56.9697 313.539 60.9105C334.23 64.8513 353.728 73.5267 370.507 86.2579C387.286 98.9891 400.892 115.431 410.259 134.296C419.626 153.161 424.5 173.937 424.5 195H483Z"/>
</mask>
<path d="M483 195C483 164.911 476.037 135.23 462.656 108.279C449.274 81.3294 429.838 57.8415 405.867 39.6541C381.897 21.4667 354.042 9.07322 324.484 3.44352C294.926 -2.18619 264.467 -0.899332 235.489 7.20336C206.511 15.3061 179.801 30.0048 157.45 50.1491C135.099 70.2935 117.713 95.337 106.652 123.32C95.5919 151.302 91.157 181.465 93.6949 211.447C96.2327 241.429 105.675 270.417 121.281 296.143L171.297 265.8C160.372 247.792 153.763 227.501 151.986 206.513C150.21 185.526 153.314 164.412 161.057 144.824C168.799 125.236 180.969 107.705 196.615 93.6044C212.261 79.5033 230.958 69.2142 251.242 63.5424C271.527 57.8705 292.849 56.9697 313.539 60.9105C334.23 64.8513 353.728 73.5267 370.507 86.2579C387.286 98.9891 400.892 115.431 410.259 134.296C419.626 153.161 424.5 173.937 424.5 195H483Z" stroke-width="60" mask="url(#path-2-inside-2_1_15)"/>
<mask id="path-3-inside-3_1_15" fill="white">
<path d="M777.081 332.892C780.825 306.3 779.078 279.217 771.948 253.334C764.818 227.45 752.459 203.321 735.641 182.45C718.823 161.58 697.907 144.417 674.198 132.031C650.49 119.645 624.496 112.302 597.839 110.46C571.182 108.618 544.433 112.317 519.261 121.326C494.089 130.334 471.033 144.459 451.533 162.82C432.032 181.181 416.504 203.383 405.917 228.042C395.331 252.702 389.913 279.289 390.001 306.147L448.351 305.953C448.289 287.153 452.082 268.541 459.492 251.28C466.903 234.018 477.772 218.476 491.423 205.624C505.073 192.771 521.212 182.884 538.833 176.578C556.453 170.272 575.177 167.683 593.837 168.972C612.497 170.262 630.693 175.402 647.289 184.072C663.885 192.742 678.526 204.756 690.299 219.365C702.071 233.974 710.723 250.865 715.713 268.983C720.704 287.102 721.928 306.06 719.307 324.675L777.081 332.892Z"/>
</mask>
<path d="M777.081 332.892C780.825 306.3 779.078 279.217 771.948 253.334C764.818 227.45 752.459 203.321 735.641 182.45C718.823 161.58 697.907 144.417 674.198 132.031C650.49 119.645 624.496 112.302 597.839 110.46C571.182 108.618 544.433 112.317 519.261 121.326C494.089 130.334 471.033 144.459 451.533 162.82C432.032 181.181 416.504 203.383 405.917 228.042C395.331 252.702 389.913 279.289 390.001 306.147L448.351 305.953C448.289 287.153 452.082 268.541 459.492 251.28C466.903 234.018 477.772 218.476 491.423 205.624C505.073 192.771 521.212 182.884 538.833 176.578C556.453 170.272 575.177 167.683 593.837 168.972C612.497 170.262 630.693 175.402 647.289 184.072C663.885 192.742 678.526 204.756 690.299 219.365C702.071 233.974 710.723 250.865 715.713 268.983C720.704 287.102 721.928 306.06 719.307 324.675L777.081 332.892Z" stroke-width="60" mask="url(#path-3-inside-3_1_15)"/>
<mask id="path-4-inside-4_1_15" fill="white">
<path d="M598.114 640.886C622.965 665.737 654.071 683.41 688.141 692.036C722.211 700.661 757.979 699.919 791.662 689.887C825.344 679.855 855.69 660.907 879.489 635.046C903.287 609.185 919.654 577.372 926.859 542.974C934.063 508.575 931.837 472.869 920.416 439.632C908.996 406.394 888.804 376.861 861.978 354.156C835.152 331.451 802.688 316.418 768.02 310.647C733.352 304.876 697.769 308.582 665.034 321.372L686.324 375.86C709.238 366.907 734.146 364.313 758.414 368.353C782.681 372.392 805.406 382.916 824.185 398.809C842.963 414.703 857.097 435.376 865.092 458.642C873.086 481.908 874.644 506.903 869.601 530.982C864.558 555.061 853.101 577.329 836.442 595.432C819.783 613.535 798.541 626.799 774.963 633.821C751.385 640.843 726.348 641.363 702.499 635.325C678.65 629.287 656.876 616.916 639.48 599.52L598.114 640.886Z"/>
</mask>
<path d="M598.114 640.886C622.965 665.737 654.071 683.41 688.141 692.036C722.211 700.661 757.979 699.919 791.662 689.887C825.344 679.855 855.69 660.907 879.489 635.046C903.287 609.185 919.654 577.372 926.859 542.974C934.063 508.575 931.837 472.869 920.416 439.632C908.996 406.394 888.804 376.861 861.978 354.156C835.152 331.451 802.688 316.418 768.02 310.647C733.352 304.876 697.769 308.582 665.034 321.372L686.324 375.86C709.238 366.907 734.146 364.313 758.414 368.353C782.681 372.392 805.406 382.916 824.185 398.809C842.963 414.703 857.097 435.376 865.092 458.642C873.086 481.908 874.644 506.903 869.601 530.982C864.558 555.061 853.101 577.329 836.442 595.432C819.783 613.535 798.541 626.799 774.963 633.821C751.385 640.843 726.348 641.363 702.499 635.325C678.65 629.287 656.876 616.916 639.48 599.52L598.114 640.886Z" stroke-width="60" mask="url(#path-4-inside-4_1_15)"/>
<path d="M361.851 601.922L362.449 601.135L362.972 600.297L388.432 559.512C414.003 518.549 384.552 465.446 336.262 465.446L241.372 465.446C232.29 465.446 224.552 458.854 223.107 449.888L214.206 394.63C212.191 382.12 223.064 371.333 235.557 373.447L468.68 412.899L469.014 412.955L469.349 413.001L715.005 446.653C729.998 448.706 736.317 466.913 725.82 477.814L682.877 522.409C677.877 527.601 670.317 529.416 663.504 527.06L587.897 500.914C557.498 490.401 524.133 505.088 511.357 534.607L369.481 862.393C364.881 873.02 363.375 884.729 365.136 896.174L391.289 1066.16C393.085 1077.84 383.623 1088.19 371.831 1087.44L191.129 1075.96C179.437 1075.22 171.37 1063.94 174.453 1052.63L227.836 856.893L278.69 712.806C279.329 710.996 280.245 709.297 281.407 707.769L361.851 601.922Z" stroke-width="43"/>
</svg>
