<svg width="105" height="129" viewBox="20 20 60 120" fill="#277364" xmlns="http://www.w3.org/2000/svg" style="stroke: #277364;">
<path d="M40.8702 67.2547L40.9397 67.1633L41.0005 67.0658L44.3601 61.684C47.0627 57.3546 43.95 51.742 38.8462 51.742L26.7869 51.742C26.0506 51.742 25.4231 51.2075 25.306 50.4806L24.1193 43.114C23.9559 42.0997 24.8375 41.225 25.8505 41.3965L52.8461 45.965L52.8849 45.9715L52.9239 45.9769L81.6261 49.9087C82.8418 50.0752 83.3542 51.5514 82.503 52.4353L76.7354 58.4247C76.33 58.8457 75.717 58.9929 75.1647 58.8019L65.8807 55.5913C62.6678 54.4802 59.1415 56.0326 57.7911 59.1524L41.5433 96.691C41.0571 97.8142 40.898 99.0517 41.084 100.261L44.1526 120.207C44.2983 121.154 43.5311 121.993 42.575 121.932L20.9348 120.558C19.9868 120.498 19.3327 119.583 19.5827 118.666L25.7676 95.9878L31.5288 79.6645C31.5805 79.5177 31.6549 79.38 31.749 79.2561L40.8702 67.2547Z"  stroke-width="5"/>
</svg>
